<svg width="60" height="56" viewBox="0 0 60 56" fill="none" xmlns="http://www.w3.org/2000/svg">
	<g clip-path="url(#clip0_635_8)">
		<path d="M2 0.25L3.73205 1.25V3.25L2 4.25L0.267949 3.25V1.25L2 0.25Z" fill="rgb(26, 30, 31)" />
		<path d="M0 -3.25L1.73205 -2.25V-0.25L0 0.75L-1.73205 -0.25V-2.25L0 -3.25Z" fill="rgb(26, 30, 31)" />
		<path d="M4 -3.25L5.73205 -2.25V-0.25L4 0.75L2.26795 -0.25V-2.25L4 -3.25Z" fill="rgb(26, 30, 31)" />
		<path d="M8 -3.25L9.73205 -2.25V-0.25L8 0.75L6.26795 -0.25V-2.25L8 -3.25Z" fill="rgb(26, 30, 31)" />
		<path d="M12 -3.25L13.7321 -2.25V-0.25L12 0.75L10.2679 -0.25V-2.25L12 -3.25Z" fill="rgb(26, 30, 31)" />
		<path d="M16 -3.25L17.7321 -2.25V-0.25L16 0.75L14.2679 -0.25V-2.25L16 -3.25Z" fill="rgb(26, 30, 31)" />
		<path d="M6 0.25L7.73205 1.25V3.25L6 4.25L4.26795 3.25V1.25L6 0.25Z" fill="rgb(26, 30, 31)" />
		<path d="M6 7.25L7.73205 8.25V10.25L6 11.25L4.26795 10.25V8.25L6 7.25Z" fill="rgb(26, 30, 31)" />
		<path d="M18 28.25L19.7321 29.25V31.25L18 32.25L16.2679 31.25V29.25L18 28.25Z" fill="rgb(26, 30, 31)" />
		<path d="M30 28.25L31.7321 29.25V31.25L30 32.25L28.2679 31.25V29.25L30 28.25Z" fill="rgb(26, 30, 31)" />
		<path d="M34 28.25L35.7321 29.25V31.25L34 32.25L32.2679 31.25V29.25L34 28.25Z" fill="rgb(26, 30, 31)" />
		<path d="M38 28.25L39.7321 29.25V31.25L38 32.25L36.2679 31.25V29.25L38 28.25Z" fill="rgb(26, 30, 31)" />
		<path d="M42 28.25L43.7321 29.25V31.25L42 32.25L40.2679 31.25V29.25L42 28.25Z" fill="rgb(26, 30, 31)" />
		<path d="M46 28.25L47.7321 29.25V31.25L46 32.25L44.2679 31.25V29.25L46 28.25Z" fill="rgb(26, 30, 31)" />
		<path d="M50 28.25L51.7321 29.25V31.25L50 32.25L48.2679 31.25V29.25L50 28.25Z" fill="rgb(26, 30, 31)" />
		<path d="M54 28.25L55.7321 29.25V31.25L54 32.25L52.2679 31.25V29.25L54 28.25Z" fill="rgb(26, 30, 31)" />
		<path d="M58 28.25L59.7321 29.25V31.25L58 32.25L56.2679 31.25V29.25L58 28.25Z" fill="rgb(26, 30, 31)" />
		<path d="M26 28.25L27.7321 29.25V31.25L26 32.25L24.2679 31.25V29.25L26 28.25Z" fill="rgb(26, 30, 31)" />
		<path d="M2 14.25L3.73205 15.25V17.25L2 18.25L0.267949 17.25V15.25L2 14.25Z" fill="rgb(26, 30, 31)" />
		<path d="M0 17.75L1.73205 18.75V20.75L0 21.75L-1.73205 20.75V18.75L0 17.75Z" fill="rgb(26, 30, 31)" />
		<path d="M4 17.75L5.73205 18.75V20.75L4 21.75L2.26795 20.75V18.75L4 17.75Z" fill="rgb(26, 30, 31)" />
		<path d="M8 17.75L9.73205 18.75V20.75L8 21.75L6.26795 20.75V18.75L8 17.75Z" fill="rgb(26, 30, 31)" />
		<path d="M12 17.75L13.7321 18.75V20.75L12 21.75L10.2679 20.75V18.75L12 17.75Z" fill="rgb(26, 30, 31)" />
		<path d="M16 17.75L17.7321 18.75V20.75L16 21.75L14.2679 20.75V18.75L16 17.75Z" fill="rgb(26, 30, 31)" />
		<path d="M20 17.75L21.7321 18.75V20.75L20 21.75L18.2679 20.75V18.75L20 17.75Z" fill="rgb(26, 30, 31)" />
		<path d="M24 17.75L25.7321 18.75V20.75L24 21.75L22.2679 20.75V18.75L24 17.75Z" fill="rgb(26, 30, 31)" />
		<path d="M28 17.75L29.7321 18.75V20.75L28 21.75L26.2679 20.75V18.75L28 17.75Z" fill="rgb(26, 30, 31)" />
		<path d="M32 17.75L33.7321 18.75V20.75L32 21.75L30.2679 20.75V18.75L32 17.75Z" fill="rgb(26, 30, 31)" />
		<path d="M36 17.75L37.7321 18.75V20.75L36 21.75L34.2679 20.75V18.75L36 17.75Z" fill="rgb(26, 30, 31)" />
		<path d="M40 17.75L41.7321 18.75V20.75L40 21.75L38.2679 20.75V18.75L40 17.75Z" fill="rgb(26, 30, 31)" />
		<path d="M44 17.75L45.7321 18.75V20.75L44 21.75L42.2679 20.75V18.75L44 17.75Z" fill="rgb(26, 30, 31)" />
		<path d="M48 17.75L49.7321 18.75V20.75L48 21.75L46.2679 20.75V18.75L48 17.75Z" fill="rgb(26, 30, 31)" />
		<path d="M52 17.75L53.7321 18.75V20.75L52 21.75L50.2679 20.75V18.75L52 17.75Z" fill="rgb(26, 30, 31)" />
		<path d="M56 17.75L57.7321 18.75V20.75L56 21.75L54.2679 20.75V18.75L56 17.75Z" fill="rgb(26, 30, 31)" />
		<path d="M60 17.75L61.7321 18.75V20.75L60 21.75L58.2679 20.75V18.75L60 17.75Z" fill="rgb(26, 30, 31)" />
		<path d="M34 0.25L35.7321 1.25V3.25L34 4.25L32.2679 3.25V1.25L34 0.25Z" fill="rgb(26, 30, 31)" />
		<path d="M38 0.25L39.7321 1.25V3.25L38 4.25L36.2679 3.25V1.25L38 0.25Z" fill="rgb(26, 30, 31)" />
		<path d="M42 0.25L43.7321 1.25V3.25L42 4.25L40.2679 3.25V1.25L42 0.25Z" fill="rgb(26, 30, 31)" />
		<path d="M46 0.25L47.7321 1.25V3.25L46 4.25L44.2679 3.25V1.25L46 0.25Z" fill="rgb(26, 30, 31)" />
		<path d="M50 0.25L51.7321 1.25V3.25L50 4.25L48.2679 3.25V1.25L50 0.25Z" fill="rgb(26, 30, 31)" />
		<path d="M54 0.25L55.7321 1.25V3.25L54 4.25L52.2679 3.25V1.25L54 0.25Z" fill="rgb(26, 30, 31)" />
		<path d="M58 0.25L59.7321 1.25V3.25L58 4.25L56.2679 3.25V1.25L58 0.25Z" fill="rgb(26, 30, 31)" />
		<path d="M22 28.25L23.7321 29.25V31.25L22 32.25L20.2679 31.25V29.25L22 28.25Z" fill="rgb(26, 30, 31)" />
		<path d="M6 14.25L7.73205 15.25V17.25L6 18.25L4.26795 17.25V15.25L6 14.25Z" fill="rgb(26, 30, 31)" />
		<path d="M14 28.25L15.7321 29.25V31.25L14 32.25L12.2679 31.25V29.25L14 28.25Z" fill="rgb(26, 30, 31)" />
		<path d="M10 28.25L11.7321 29.25V31.25L10 32.25L8.26795 31.25V29.25L10 28.25Z" fill="rgb(26, 30, 31)" />
		<path d="M6 28.25L7.73205 29.25V31.25L6 32.25L4.26795 31.25V29.25L6 28.25Z" fill="rgb(26, 30, 31)" />
		<path d="M18 21.25L19.7321 22.25V24.25L18 25.25L16.2679 24.25V22.25L18 21.25Z" fill="rgb(26, 30, 31)" />
		<path d="M14 21.25L15.7321 22.25V24.25L14 25.25L12.2679 24.25V22.25L14 21.25Z" fill="rgb(26, 30, 31)" />
		<path d="M30 21.25L31.7321 22.25V24.25L30 25.25L28.2679 24.25V22.25L30 21.25Z" fill="rgb(26, 30, 31)" />
		<path d="M34 21.25L35.7321 22.25V24.25L34 25.25L32.2679 24.25V22.25L34 21.25Z" fill="rgb(26, 30, 31)" />
		<path d="M38 21.25L39.7321 22.25V24.25L38 25.25L36.2679 24.25V22.25L38 21.25Z" fill="rgb(26, 30, 31)" />
		<path d="M42 21.25L43.7321 22.25V24.25L42 25.25L40.2679 24.25V22.25L42 21.25Z" fill="rgb(26, 30, 31)" />
		<path d="M46 21.25L47.7321 22.25V24.25L46 25.25L44.2679 24.25V22.25L46 21.25Z" fill="rgb(26, 30, 31)" />
		<path d="M50 21.25L51.7321 22.25V24.25L50 25.25L48.2679 24.25V22.25L50 21.25Z" fill="rgb(26, 30, 31)" />
		<path d="M54 21.25L55.7321 22.25V24.25L54 25.25L52.2679 24.25V22.25L54 21.25Z" fill="rgb(26, 30, 31)" />
		<path d="M58 21.25L59.7321 22.25V24.25L58 25.25L56.2679 24.25V22.25L58 21.25Z" fill="rgb(26, 30, 31)" />
		<path d="M26 21.25L27.7321 22.25V24.25L26 25.25L24.2679 24.25V22.25L26 21.25Z" fill="rgb(26, 30, 31)" />
		<path d="M2 28.25L3.73205 29.25V31.25L2 32.25L0.267949 31.25V29.25L2 28.25Z" fill="rgb(26, 30, 31)" />
		<path d="M0 31.75L1.73205 32.75V34.75L0 35.75L-1.73205 34.75V32.75L0 31.75Z" fill="rgb(26, 30, 31)" />
		<path d="M2 35.25L3.73205 36.25V38.25L2 39.25L0.267949 38.25V36.25L2 35.25Z" fill="rgb(26, 30, 31)" />
		<path d="M0 38.75L1.73205 39.75V41.75L0 42.75L-1.73205 41.75V39.75L0 38.75Z" fill="rgb(26, 30, 31)" />
		<path d="M2 42.25L3.73205 43.25V45.25L2 46.25L0.267949 45.25V43.25L2 42.25Z" fill="rgb(26, 30, 31)" />
		<path d="M0 45.75L1.73205 46.75V48.75L0 49.75L-1.73205 48.75V46.75L0 45.75Z" fill="rgb(26, 30, 31)" />
		<path d="M4 45.75L5.73205 46.75V48.75L4 49.75L2.26795 48.75V46.75L4 45.75Z" fill="rgb(26, 30, 31)" />
		<path d="M4 52.75L5.73205 53.75V55.75L4 56.75L2.26795 55.75V53.75L4 52.75Z" fill="rgb(26, 30, 31)" />
		<path d="M2 49.25L3.73205 50.25V52.25L2 53.25L0.267949 52.25V50.25L2 49.25Z" fill="rgb(26, 30, 31)" />
		<path d="M6 49.25L7.73205 50.25V52.25L6 53.25L4.26795 52.25V50.25L6 49.25Z" fill="rgb(26, 30, 31)" />
		<path d="M10 49.25L11.7321 50.25V52.25L10 53.25L8.26795 52.25V50.25L10 49.25Z" fill="rgb(26, 30, 31)" />
		<path d="M14 49.25L15.7321 50.25V52.25L14 53.25L12.2679 52.25V50.25L14 49.25Z" fill="rgb(26, 30, 31)" />
		<path d="M18 49.25L19.7321 50.25V52.25L18 53.25L16.2679 52.25V50.25L18 49.25Z" fill="rgb(26, 30, 31)" />
		<path d="M22 49.25L23.7321 50.25V52.25L22 53.25L20.2679 52.25V50.25L22 49.25Z" fill="rgb(26, 30, 31)" />
		<path d="M26 49.25L27.7321 50.25V52.25L26 53.25L24.2679 52.25V50.25L26 49.25Z" fill="rgb(26, 30, 31)" />
		<path d="M30 49.25L31.7321 50.25V52.25L30 53.25L28.2679 52.25V50.25L30 49.25Z" fill="rgb(26, 30, 31)" />
		<path d="M34 49.25L35.7321 50.25V52.25L34 53.25L32.2679 52.25V50.25L34 49.25Z" fill="rgb(26, 30, 31)" />
		<path d="M38 49.25L39.7321 50.25V52.25L38 53.25L36.2679 52.25V50.25L38 49.25Z" fill="rgb(26, 30, 31)" />
		<path d="M42 49.25L43.7321 50.25V52.25L42 53.25L40.2679 52.25V50.25L42 49.25Z" fill="rgb(26, 30, 31)" />
		<path d="M46 49.25L47.7321 50.25V52.25L46 53.25L44.2679 52.25V50.25L46 49.25Z" fill="rgb(26, 30, 31)" />
		<path d="M50 49.25L51.7321 50.25V52.25L50 53.25L48.2679 52.25V50.25L50 49.25Z" fill="rgb(26, 30, 31)" />
		<path d="M54 49.25L55.7321 50.25V52.25L54 53.25L52.2679 52.25V50.25L54 49.25Z" fill="rgb(26, 30, 31)" />
		<path d="M58 49.25L59.7321 50.25V52.25L58 53.25L56.2679 52.25V50.25L58 49.25Z" fill="rgb(26, 30, 31)" />
		<path d="M0 52.75L1.73205 53.75V55.75L0 56.75L-1.73205 55.75V53.75L0 52.75Z" fill="rgb(26, 30, 31)" />
		<path d="M8 45.75L9.73205 46.75V48.75L8 49.75L6.26795 48.75V46.75L8 45.75Z" fill="rgb(26, 30, 31)" />
		<path d="M12 45.75L13.7321 46.75V48.75L12 49.75L10.2679 48.75V46.75L12 45.75Z" fill="rgb(26, 30, 31)" />
		<path d="M16 45.75L17.7321 46.75V48.75L16 49.75L14.2679 48.75V46.75L16 45.75Z" fill="rgb(26, 30, 31)" />
		<path d="M20 45.75L21.7321 46.75V48.75L20 49.75L18.2679 48.75V46.75L20 45.75Z" fill="rgb(26, 30, 31)" />
		<path d="M24 45.75L25.7321 46.75V48.75L24 49.75L22.2679 48.75V46.75L24 45.75Z" fill="rgb(26, 30, 31)" />
		<path d="M28 45.75L29.7321 46.75V48.75L28 49.75L26.2679 48.75V46.75L28 45.75Z" fill="rgb(26, 30, 31)" />
		<path d="M32 45.75L33.7321 46.75V48.75L32 49.75L30.2679 48.75V46.75L32 45.75Z" fill="rgb(26, 30, 31)" />
		<path d="M36 45.75L37.7321 46.75V48.75L36 49.75L34.2679 48.75V46.75L36 45.75Z" fill="rgb(26, 30, 31)" />
		<path d="M40 45.75L41.7321 46.75V48.75L40 49.75L38.2679 48.75V46.75L40 45.75Z" fill="rgb(26, 30, 31)" />
		<path d="M44 45.75L45.7321 46.75V48.75L44 49.75L42.2679 48.75V46.75L44 45.75Z" fill="rgb(26, 30, 31)" />
		<path d="M48 45.75L49.7321 46.75V48.75L48 49.75L46.2679 48.75V46.75L48 45.75Z" fill="rgb(26, 30, 31)" />
		<path d="M52 45.75L53.7321 46.75V48.75L52 49.75L50.2679 48.75V46.75L52 45.75Z" fill="rgb(26, 30, 31)" />
		<path d="M56 45.75L57.7321 46.75V48.75L56 49.75L54.2679 48.75V46.75L56 45.75Z" fill="rgb(26, 30, 31)" />
		<path d="M60 45.75L61.7321 46.75V48.75L60 49.75L58.2679 48.75V46.75L60 45.75Z" fill="rgb(26, 30, 31)" />
		<path d="M8 52.75L9.73205 53.75V55.75L8 56.75L6.26795 55.75V53.75L8 52.75Z" fill="rgb(26, 30, 31)" />
		<path d="M12 52.75L13.7321 53.75V55.75L12 56.75L10.2679 55.75V53.75L12 52.75Z" fill="rgb(26, 30, 31)" />
		<path d="M16 52.75L17.7321 53.75V55.75L16 56.75L14.2679 55.75V53.75L16 52.75Z" fill="rgb(26, 30, 31)" />
		<path d="M20 52.75L21.7321 53.75V55.75L20 56.75L18.2679 55.75V53.75L20 52.75Z" fill="rgb(26, 30, 31)" />
		<path d="M24 52.75L25.7321 53.75V55.75L24 56.75L22.2679 55.75V53.75L24 52.75Z" fill="rgb(26, 30, 31)" />
		<path d="M28 52.75L29.7321 53.75V55.75L28 56.75L26.2679 55.75V53.75L28 52.75Z" fill="rgb(26, 30, 31)" />
		<path d="M32 52.75L33.7321 53.75V55.75L32 56.75L30.2679 55.75V53.75L32 52.75Z" fill="rgb(26, 30, 31)" />
		<path d="M36 52.75L37.7321 53.75V55.75L36 56.75L34.2679 55.75V53.75L36 52.75Z" fill="rgb(26, 30, 31)" />
		<path d="M40 52.75L41.7321 53.75V55.75L40 56.75L38.2679 55.75V53.75L40 52.75Z" fill="rgb(26, 30, 31)" />
		<path d="M44 52.75L45.7321 53.75V55.75L44 56.75L42.2679 55.75V53.75L44 52.75Z" fill="rgb(26, 30, 31)" />
		<path d="M48 52.75L49.7321 53.75V55.75L48 56.75L46.2679 55.75V53.75L48 52.75Z" fill="rgb(26, 30, 31)" />
		<path d="M52 52.75L53.7321 53.75V55.75L52 56.75L50.2679 55.75V53.75L52 52.75Z" fill="rgb(26, 30, 31)" />
		<path d="M56 52.75L57.7321 53.75V55.75L56 56.75L54.2679 55.75V53.75L56 52.75Z" fill="rgb(26, 30, 31)" />
		<path d="M60 52.75L61.7321 53.75V55.75L60 56.75L58.2679 55.75V53.75L60 52.75Z" fill="rgb(26, 30, 31)" />
		<path d="M6 42.25L7.73205 43.25V45.25L6 46.25L4.26795 45.25V43.25L6 42.25Z" fill="rgb(26, 30, 31)" />
		<path d="M10 42.25L11.7321 43.25V45.25L10 46.25L8.26795 45.25V43.25L10 42.25Z" fill="rgb(26, 30, 31)" />
		<path d="M14 42.25L15.7321 43.25V45.25L14 46.25L12.2679 45.25V43.25L14 42.25Z" fill="rgb(26, 30, 31)" />
		<path d="M18 42.25L19.7321 43.25V45.25L18 46.25L16.2679 45.25V43.25L18 42.25Z" fill="rgb(26, 30, 31)" />
		<path d="M22 42.25L23.7321 43.25V45.25L22 46.25L20.2679 45.25V43.25L22 42.25Z" fill="rgb(26, 30, 31)" />
		<path d="M26 42.25L27.7321 43.25V45.25L26 46.25L24.2679 45.25V43.25L26 42.25Z" fill="rgb(26, 30, 31)" />
		<path d="M30 42.25L31.7321 43.25V45.25L30 46.25L28.2679 45.25V43.25L30 42.25Z" fill="rgb(26, 30, 31)" />
		<path d="M34 42.25L35.7321 43.25V45.25L34 46.25L32.2679 45.25V43.25L34 42.25Z" fill="rgb(26, 30, 31)" />
		<path d="M38 42.25L39.7321 43.25V45.25L38 46.25L36.2679 45.25V43.25L38 42.25Z" fill="rgb(26, 30, 31)" />
		<path d="M42 42.25L43.7321 43.25V45.25L42 46.25L40.2679 45.25V43.25L42 42.25Z" fill="rgb(26, 30, 31)" />
		<path d="M46 42.25L47.7321 43.25V45.25L46 46.25L44.2679 45.25V43.25L46 42.25Z" fill="rgb(26, 30, 31)" />
		<path d="M50 42.25L51.7321 43.25V45.25L50 46.25L48.2679 45.25V43.25L50 42.25Z" fill="rgb(26, 30, 31)" />
		<path d="M54 42.25L55.7321 43.25V45.25L54 46.25L52.2679 45.25V43.25L54 42.25Z" fill="rgb(26, 30, 31)" />
		<path d="M58 42.25L59.7321 43.25V45.25L58 46.25L56.2679 45.25V43.25L58 42.25Z" fill="rgb(26, 30, 31)" />
		<path d="M4 38.75L5.73205 39.75V41.75L4 42.75L2.26795 41.75V39.75L4 38.75Z" fill="rgb(26, 30, 31)" />
		<path d="M8 38.75L9.73205 39.75V41.75L8 42.75L6.26795 41.75V39.75L8 38.75Z" fill="rgb(26, 30, 31)" />
		<path d="M12 38.75L13.7321 39.75V41.75L12 42.75L10.2679 41.75V39.75L12 38.75Z" fill="rgb(26, 30, 31)" />
		<path d="M16 38.75L17.7321 39.75V41.75L16 42.75L14.2679 41.75V39.75L16 38.75Z" fill="rgb(26, 30, 31)" />
		<path d="M20 38.75L21.7321 39.75V41.75L20 42.75L18.2679 41.75V39.75L20 38.75Z" fill="rgb(26, 30, 31)" />
		<path d="M24 38.75L25.7321 39.75V41.75L24 42.75L22.2679 41.75V39.75L24 38.75Z" fill="rgb(26, 30, 31)" />
		<path d="M28 38.75L29.7321 39.75V41.75L28 42.75L26.2679 41.75V39.75L28 38.75Z" fill="rgb(26, 30, 31)" />
		<path d="M32 38.75L33.7321 39.75V41.75L32 42.75L30.2679 41.75V39.75L32 38.75Z" fill="rgb(26, 30, 31)" />
		<path d="M36 38.75L37.7321 39.75V41.75L36 42.75L34.2679 41.75V39.75L36 38.75Z" fill="rgb(26, 30, 31)" />
		<path d="M40 38.75L41.7321 39.75V41.75L40 42.75L38.2679 41.75V39.75L40 38.75Z" fill="rgb(26, 30, 31)" />
		<path d="M44 38.75L45.7321 39.75V41.75L44 42.75L42.2679 41.75V39.75L44 38.75Z" fill="rgb(26, 30, 31)" />
		<path d="M48 38.75L49.7321 39.75V41.75L48 42.75L46.2679 41.75V39.75L48 38.75Z" fill="rgb(26, 30, 31)" />
		<path d="M52 38.75L53.7321 39.75V41.75L52 42.75L50.2679 41.75V39.75L52 38.75Z" fill="rgb(26, 30, 31)" />
		<path d="M56 38.75L57.7321 39.75V41.75L56 42.75L54.2679 41.75V39.75L56 38.75Z" fill="rgb(26, 30, 31)" />
		<path d="M60 38.75L61.7321 39.75V41.75L60 42.75L58.2679 41.75V39.75L60 38.75Z" fill="rgb(26, 30, 31)" />
		<path d="M6 35.25L7.73205 36.25V38.25L6 39.25L4.26795 38.25V36.25L6 35.25Z" fill="rgb(26, 30, 31)" />
		<path d="M10 35.25L11.7321 36.25V38.25L10 39.25L8.26795 38.25V36.25L10 35.25Z" fill="rgb(26, 30, 31)" />
		<path d="M14 35.25L15.7321 36.25V38.25L14 39.25L12.2679 38.25V36.25L14 35.25Z" fill="rgb(26, 30, 31)" />
		<path d="M18 35.25L19.7321 36.25V38.25L18 39.25L16.2679 38.25V36.25L18 35.25Z" fill="rgb(26, 30, 31)" />
		<path d="M22 35.25L23.7321 36.25V38.25L22 39.25L20.2679 38.25V36.25L22 35.25Z" fill="rgb(26, 30, 31)" />
		<path d="M26 35.25L27.7321 36.25V38.25L26 39.25L24.2679 38.25V36.25L26 35.25Z" fill="rgb(26, 30, 31)" />
		<path d="M30 35.25L31.7321 36.25V38.25L30 39.25L28.2679 38.25V36.25L30 35.25Z" fill="rgb(26, 30, 31)" />
		<path d="M34 35.25L35.7321 36.25V38.25L34 39.25L32.2679 38.25V36.25L34 35.25Z" fill="rgb(26, 30, 31)" />
		<path d="M38 35.25L39.7321 36.25V38.25L38 39.25L36.2679 38.25V36.25L38 35.25Z" fill="rgb(26, 30, 31)" />
		<path d="M42 35.25L43.7321 36.25V38.25L42 39.25L40.2679 38.25V36.25L42 35.25Z" fill="rgb(26, 30, 31)" />
		<path d="M46 35.25L47.7321 36.25V38.25L46 39.25L44.2679 38.25V36.25L46 35.25Z" fill="rgb(26, 30, 31)" />
		<path d="M50 35.25L51.7321 36.25V38.25L50 39.25L48.2679 38.25V36.25L50 35.25Z" fill="rgb(26, 30, 31)" />
		<path d="M54 35.25L55.7321 36.25V38.25L54 39.25L52.2679 38.25V36.25L54 35.25Z" fill="rgb(26, 30, 31)" />
		<path d="M58 35.25L59.7321 36.25V38.25L58 39.25L56.2679 38.25V36.25L58 35.25Z" fill="rgb(26, 30, 31)" />
		<path d="M4 31.75L5.73205 32.75V34.75L4 35.75L2.26795 34.75V32.75L4 31.75Z" fill="rgb(26, 30, 31)" />
		<path d="M8 31.75L9.73205 32.75V34.75L8 35.75L6.26795 34.75V32.75L8 31.75Z" fill="rgb(26, 30, 31)" />
		<path d="M12 31.75L13.7321 32.75V34.75L12 35.75L10.2679 34.75V32.75L12 31.75Z" fill="rgb(26, 30, 31)" />
		<path d="M16 31.75L17.7321 32.75V34.75L16 35.75L14.2679 34.75V32.75L16 31.75Z" fill="rgb(26, 30, 31)" />
		<path d="M20 31.75L21.7321 32.75V34.75L20 35.75L18.2679 34.75V32.75L20 31.75Z" fill="rgb(26, 30, 31)" />
		<path d="M24 31.75L25.7321 32.75V34.75L24 35.75L22.2679 34.75V32.75L24 31.75Z" fill="rgb(26, 30, 31)" />
		<path d="M28 31.75L29.7321 32.75V34.75L28 35.75L26.2679 34.75V32.75L28 31.75Z" fill="rgb(26, 30, 31)" />
		<path d="M32 31.75L33.7321 32.75V34.75L32 35.75L30.2679 34.75V32.75L32 31.75Z" fill="rgb(26, 30, 31)" />
		<path d="M36 31.75L37.7321 32.75V34.75L36 35.75L34.2679 34.75V32.75L36 31.75Z" fill="rgb(26, 30, 31)" />
		<path d="M40 31.75L41.7321 32.75V34.75L40 35.75L38.2679 34.75V32.75L40 31.75Z" fill="rgb(26, 30, 31)" />
		<path d="M44 31.75L45.7321 32.75V34.75L44 35.75L42.2679 34.75V32.75L44 31.75Z" fill="rgb(26, 30, 31)" />
		<path d="M48 31.75L49.7321 32.75V34.75L48 35.75L46.2679 34.75V32.75L48 31.75Z" fill="rgb(26, 30, 31)" />
		<path d="M52 31.75L53.7321 32.75V34.75L52 35.75L50.2679 34.75V32.75L52 31.75Z" fill="rgb(26, 30, 31)" />
		<path d="M56 31.75L57.7321 32.75V34.75L56 35.75L54.2679 34.75V32.75L56 31.75Z" fill="rgb(26, 30, 31)" />
		<path d="M60 31.75L61.7321 32.75V34.75L60 35.75L58.2679 34.75V32.75L60 31.75Z" fill="rgb(26, 30, 31)" />
		<path d="M10 21.25L11.7321 22.25V24.25L10 25.25L8.26795 24.25V22.25L10 21.25Z" fill="rgb(26, 30, 31)" />
		<path d="M30 14.25L31.7321 15.25V17.25L30 18.25L28.2679 17.25V15.25L30 14.25Z" fill="rgb(26, 30, 31)" />
		<path d="M34 14.25L35.7321 15.25V17.25L34 18.25L32.2679 17.25V15.25L34 14.25Z" fill="rgb(26, 30, 31)" />
		<path d="M38 14.25L39.7321 15.25V17.25L38 18.25L36.2679 17.25V15.25L38 14.25Z" fill="rgb(26, 30, 31)" />
		<path d="M42 14.25L43.7321 15.25V17.25L42 18.25L40.2679 17.25V15.25L42 14.25Z" fill="rgb(26, 30, 31)" />
		<path d="M46 14.25L47.7321 15.25V17.25L46 18.25L44.2679 17.25V15.25L46 14.25Z" fill="rgb(26, 30, 31)" />
		<path d="M50 14.25L51.7321 15.25V17.25L50 18.25L48.2679 17.25V15.25L50 14.25Z" fill="rgb(26, 30, 31)" />
		<path d="M54 14.25L55.7321 15.25V17.25L54 18.25L52.2679 17.25V15.25L54 14.25Z" fill="rgb(26, 30, 31)" />
		<path d="M58 14.25L59.7321 15.25V17.25L58 18.25L56.2679 17.25V15.25L58 14.25Z" fill="rgb(26, 30, 31)" />
		<path d="M22 21.25L23.7321 22.25V24.25L22 25.25L20.2679 24.25V22.25L22 21.25Z" fill="rgb(26, 30, 31)" />
		<path d="M30 7.25L31.7321 8.25V10.25L30 11.25L28.2679 10.25V8.25L30 7.25Z" fill="rgb(26, 30, 31)" />
		<path d="M34 7.25L35.7321 8.25V10.25L34 11.25L32.2679 10.25V8.25L34 7.25Z" fill="rgb(26, 30, 31)" />
		<path d="M38 7.25L39.7321 8.25V10.25L38 11.25L36.2679 10.25V8.25L38 7.25Z" fill="rgb(26, 30, 31)" />
		<path d="M42 7.25L43.7321 8.25V10.25L42 11.25L40.2679 10.25V8.25L42 7.25Z" fill="rgb(26, 30, 31)" />
		<path d="M46 7.25L47.7321 8.25V10.25L46 11.25L44.2679 10.25V8.25L46 7.25Z" fill="rgb(26, 30, 31)" />
		<path d="M50 7.25L51.7321 8.25V10.25L50 11.25L48.2679 10.25V8.25L50 7.25Z" fill="rgb(26, 30, 31)" />
		<path d="M54 7.25L55.7321 8.25V10.25L54 11.25L52.2679 10.25V8.25L54 7.25Z" fill="rgb(26, 30, 31)" />
		<path d="M58 7.25L59.7321 8.25V10.25L58 11.25L56.2679 10.25V8.25L58 7.25Z" fill="rgb(26, 30, 31)" />
		<path d="M28 10.75L29.7321 11.75V13.75L28 14.75L26.2679 13.75V11.75L28 10.75Z" fill="rgb(26, 30, 31)" />
		<path d="M32 10.75L33.7321 11.75V13.75L32 14.75L30.2679 13.75V11.75L32 10.75Z" fill="rgb(26, 30, 31)" />
		<path d="M36 10.75L37.7321 11.75V13.75L36 14.75L34.2679 13.75V11.75L36 10.75Z" fill="rgb(26, 30, 31)" />
		<path d="M40 10.75L41.7321 11.75V13.75L40 14.75L38.2679 13.75V11.75L40 10.75Z" fill="rgb(26, 30, 31)" />
		<path d="M44 10.75L45.7321 11.75V13.75L44 14.75L42.2679 13.75V11.75L44 10.75Z" fill="rgb(26, 30, 31)" />
		<path d="M48 10.75L49.7321 11.75V13.75L48 14.75L46.2679 13.75V11.75L48 10.75Z" fill="rgb(26, 30, 31)" />
		<path d="M52 10.75L53.7321 11.75V13.75L52 14.75L50.2679 13.75V11.75L52 10.75Z" fill="rgb(26, 30, 31)" />
		<path d="M56 10.75L57.7321 11.75V13.75L56 14.75L54.2679 13.75V11.75L56 10.75Z" fill="rgb(26, 30, 31)" />
		<path d="M60 10.75L61.7321 11.75V13.75L60 14.75L58.2679 13.75V11.75L60 10.75Z" fill="rgb(26, 30, 31)" />
		<path d="M24 10.75L25.7321 11.75V13.75L24 14.75L22.2679 13.75V11.75L24 10.75Z" fill="rgb(26, 30, 31)" />
		<path d="M16 10.75L17.7321 11.75V13.75L16 14.75L14.2679 13.75V11.75L16 10.75Z" fill="rgb(26, 30, 31)" />
		<path d="M12 10.75L13.7321 11.75V13.75L12 14.75L10.2679 13.75V11.75L12 10.75Z" fill="rgb(26, 30, 31)" />
		<path d="M8 10.75L9.73205 11.75V13.75L8 14.75L6.26795 13.75V11.75L8 10.75Z" fill="rgb(26, 30, 31)" />
		<path d="M4 10.75L5.73205 11.75V13.75L4 14.75L2.26795 13.75V11.75L4 10.75Z" fill="rgb(26, 30, 31)" />
		<path d="M0 10.75L1.73205 11.75V13.75L0 14.75L-1.73205 13.75V11.75L0 10.75Z" fill="rgb(26, 30, 31)" />
		<path d="M20 10.75L21.7321 11.75V13.75L20 14.75L18.2679 13.75V11.75L20 10.75Z" fill="rgb(26, 30, 31)" />
		<path d="M28 3.75L29.7321 4.75V6.75L28 7.75L26.2679 6.75V4.75L28 3.75Z" fill="rgb(26, 30, 31)" />
		<path d="M32 3.75L33.7321 4.75V6.75L32 7.75L30.2679 6.75V4.75L32 3.75Z" fill="rgb(26, 30, 31)" />
		<path d="M36 3.75L37.7321 4.75V6.75L36 7.75L34.2679 6.75V4.75L36 3.75Z" fill="rgb(26, 30, 31)" />
		<path d="M40 3.75L41.7321 4.75V6.75L40 7.75L38.2679 6.75V4.75L40 3.75Z" fill="rgb(26, 30, 31)" />
		<path d="M44 3.75L45.7321 4.75V6.75L44 7.75L42.2679 6.75V4.75L44 3.75Z" fill="rgb(26, 30, 31)" />
		<path d="M48 3.75L49.7321 4.75V6.75L48 7.75L46.2679 6.75V4.75L48 3.75Z" fill="rgb(26, 30, 31)" />
		<path d="M52 3.75L53.7321 4.75V6.75L52 7.75L50.2679 6.75V4.75L52 3.75Z" fill="rgb(26, 30, 31)" />
		<path d="M56 3.75L57.7321 4.75V6.75L56 7.75L54.2679 6.75V4.75L56 3.75Z" fill="rgb(26, 30, 31)" />
		<path d="M60 3.75L61.7321 4.75V6.75L60 7.75L58.2679 6.75V4.75L60 3.75Z" fill="rgb(26, 30, 31)" />
		<path d="M24 3.75L25.7321 4.75V6.75L24 7.75L22.2679 6.75V4.75L24 3.75Z" fill="rgb(26, 30, 31)" />
		<path d="M20 3.75L21.7321 4.75V6.75L20 7.75L18.2679 6.75V4.75L20 3.75Z" fill="rgb(26, 30, 31)" />
		<path d="M16 3.75L17.7321 4.75V6.75L16 7.75L14.2679 6.75V4.75L16 3.75Z" fill="rgb(26, 30, 31)" />
		<path d="M12 3.75L13.7321 4.75V6.75L12 7.75L10.2679 6.75V4.75L12 3.75Z" fill="rgb(26, 30, 31)" />
		<path d="M8 3.75L9.73205 4.75V6.75L8 7.75L6.26795 6.75V4.75L8 3.75Z" fill="rgb(26, 30, 31)" />
		<path d="M4 3.75L5.73205 4.75V6.75L4 7.75L2.26795 6.75V4.75L4 3.75Z" fill="rgb(26, 30, 31)" />
		<path d="M0 3.75L1.73205 4.75V6.75L0 7.75L-1.73205 6.75V4.75L0 3.75Z" fill="rgb(26, 30, 31)" />
		<path d="M28 -3.25L29.7321 -2.25V-0.25L28 0.75L26.2679 -0.25V-2.25L28 -3.25Z" fill="rgb(26, 30, 31)" />
		<path d="M26 14.25L27.7321 15.25V17.25L26 18.25L24.2679 17.25V15.25L26 14.25Z" fill="rgb(26, 30, 31)" />
		<path d="M22 14.25L23.7321 15.25V17.25L22 18.25L20.2679 17.25V15.25L22 14.25Z" fill="rgb(26, 30, 31)" />
		<path d="M24 -3.25L25.7321 -2.25V-0.25L24 0.75L22.2679 -0.25V-2.25L24 -3.25Z" fill="rgb(26, 30, 31)" />
		<path d="M18 14.25L19.7321 15.25V17.25L18 18.25L16.2679 17.25V15.25L18 14.25Z" fill="rgb(26, 30, 31)" />
		<path d="M2 21.25L3.73205 22.25V24.25L2 25.25L0.267949 24.25V22.25L2 21.25Z" fill="rgb(26, 30, 31)" />
		<path d="M4 24.75L5.73205 25.75V27.75L4 28.75L2.26795 27.75V25.75L4 24.75Z" fill="rgb(26, 30, 31)" />
		<path d="M0 24.75L1.73205 25.75V27.75L0 28.75L-1.73205 27.75V25.75L0 24.75Z" fill="rgb(26, 30, 31)" />
		<path d="M8 24.75L9.73205 25.75V27.75L8 28.75L6.26795 27.75V25.75L8 24.75Z" fill="rgb(26, 30, 31)" />
		<path d="M12 24.75L13.7321 25.75V27.75L12 28.75L10.2679 27.75V25.75L12 24.75Z" fill="rgb(26, 30, 31)" />
		<path d="M16 24.75L17.7321 25.75V27.75L16 28.75L14.2679 27.75V25.75L16 24.75Z" fill="rgb(26, 30, 31)" />
		<path d="M20 24.75L21.7321 25.75V27.75L20 28.75L18.2679 27.75V25.75L20 24.75Z" fill="rgb(26, 30, 31)" />
		<path d="M24 24.75L25.7321 25.75V27.75L24 28.75L22.2679 27.75V25.75L24 24.75Z" fill="rgb(26, 30, 31)" />
		<path d="M28 24.75L29.7321 25.75V27.75L28 28.75L26.2679 27.75V25.75L28 24.75Z" fill="rgb(26, 30, 31)" />
		<path d="M32 24.75L33.7321 25.75V27.75L32 28.75L30.2679 27.75V25.75L32 24.75Z" fill="rgb(26, 30, 31)" />
		<path d="M36 24.75L37.7321 25.75V27.75L36 28.75L34.2679 27.75V25.75L36 24.75Z" fill="rgb(26, 30, 31)" />
		<path d="M40 24.75L41.7321 25.75V27.75L40 28.75L38.2679 27.75V25.75L40 24.75Z" fill="rgb(26, 30, 31)" />
		<path d="M44 24.75L45.7321 25.75V27.75L44 28.75L42.2679 27.75V25.75L44 24.75Z" fill="rgb(26, 30, 31)" />
		<path d="M48 24.75L49.7321 25.75V27.75L48 28.75L46.2679 27.75V25.75L48 24.75Z" fill="rgb(26, 30, 31)" />
		<path d="M52 24.75L53.7321 25.75V27.75L52 28.75L50.2679 27.75V25.75L52 24.75Z" fill="rgb(26, 30, 31)" />
		<path d="M56 24.75L57.7321 25.75V27.75L56 28.75L54.2679 27.75V25.75L56 24.75Z" fill="rgb(26, 30, 31)" />
		<path d="M60 24.75L61.7321 25.75V27.75L60 28.75L58.2679 27.75V25.75L60 24.75Z" fill="rgb(26, 30, 31)" />
		<path d="M14 14.25L15.7321 15.25V17.25L14 18.25L12.2679 17.25V15.25L14 14.25Z" fill="rgb(26, 30, 31)" />
		<path d="M10 14.25L11.7321 15.25V17.25L10 18.25L8.26795 17.25V15.25L10 14.25Z" fill="rgb(26, 30, 31)" />
		<path d="M2 7.25L3.73205 8.25V10.25L2 11.25L0.267949 10.25V8.25L2 7.25Z" fill="rgb(26, 30, 31)" />
		<path d="M14 0.25L15.7321 1.25V3.25L14 4.25L12.2679 3.25V1.25L14 0.25Z" fill="rgb(26, 30, 31)" />
		<path d="M18 0.25L19.7321 1.25V3.25L18 4.25L16.2679 3.25V1.25L18 0.25Z" fill="rgb(26, 30, 31)" />
		<path d="M22 0.25L23.7321 1.25V3.25L22 4.25L20.2679 3.25V1.25L22 0.25Z" fill="rgb(26, 30, 31)" />
		<path d="M26 0.25L27.7321 1.25V3.25L26 4.25L24.2679 3.25V1.25L26 0.25Z" fill="rgb(26, 30, 31)" />
		<path d="M14 7.25L15.7321 8.25V10.25L14 11.25L12.2679 10.25V8.25L14 7.25Z" fill="rgb(26, 30, 31)" />
		<path d="M18 7.25L19.7321 8.25V10.25L18 11.25L16.2679 10.25V8.25L18 7.25Z" fill="rgb(26, 30, 31)" />
		<path d="M22 7.25L23.7321 8.25V10.25L22 11.25L20.2679 10.25V8.25L22 7.25Z" fill="rgb(26, 30, 31)" />
		<path d="M26 7.25L27.7321 8.25V10.25L26 11.25L24.2679 10.25V8.25L26 7.25Z" fill="rgb(26, 30, 31)" />
		<path d="M20 -3.25L21.7321 -2.25V-0.25L20 0.75L18.2679 -0.25V-2.25L20 -3.25Z" fill="rgb(26, 30, 31)" />
		<path d="M10 7.25L11.7321 8.25V10.25L10 11.25L8.26795 10.25V8.25L10 7.25Z" fill="rgb(26, 30, 31)" />
		<path d="M10 0.25L11.7321 1.25V3.25L10 4.25L8.26795 3.25V1.25L10 0.25Z" fill="rgb(26, 30, 31)" />
		<path d="M30 0.25L31.7321 1.25V3.25L30 4.25L28.2679 3.25V1.25L30 0.25Z" fill="rgb(26, 30, 31)" />
		<path d="M32 -3.25L33.7321 -2.25V-0.25L32 0.75L30.2679 -0.25V-2.25L32 -3.25Z" fill="rgb(26, 30, 31)" />
		<path d="M36 -3.25L37.7321 -2.25V-0.25L36 0.75L34.2679 -0.25V-2.25L36 -3.25Z" fill="rgb(26, 30, 31)" />
		<path d="M40 -3.25L41.7321 -2.25V-0.25L40 0.75L38.2679 -0.25V-2.25L40 -3.25Z" fill="rgb(26, 30, 31)" />
		<path d="M44 -3.25L45.7321 -2.25V-0.25L44 0.75L42.2679 -0.25V-2.25L44 -3.25Z" fill="rgb(26, 30, 31)" />
		<path d="M48 -3.25L49.7321 -2.25V-0.25L48 0.75L46.2679 -0.25V-2.25L48 -3.25Z" fill="rgb(26, 30, 31)" />
		<path d="M52 -3.25L53.7321 -2.25V-0.25L52 0.75L50.2679 -0.25V-2.25L52 -3.25Z" fill="rgb(26, 30, 31)" />
		<path d="M56 -3.25L57.7321 -2.25V-0.25L56 0.75L54.2679 -0.25V-2.25L56 -3.25Z" fill="rgb(26, 30, 31)" />
		<path d="M60 -3.25L61.7321 -2.25V-0.25L60 0.75L58.2679 -0.25V-2.25L60 -3.25Z" fill="rgb(26, 30, 31)" />
		<path d="M6 21.25L7.73205 22.25V24.25L6 25.25L4.26795 24.25V22.25L6 21.25Z" fill="rgb(26, 30, 31)" />
	</g>
	<defs>
		<clipPath id="clip0_635_8">
			<rect width="60" height="56" fill="white"/>
		</clipPath>
	</defs>
</svg>
